# xmcd CD database file
#
# Track frame offsets:
#	150
#	29882
#	45585
#	60207
#
# Disc length: 994 seconds
#
# Revision: 0
# Processed by: cddbd v1.5.2PL0 Copyright (c) Steve Scherf et al.
# Submitted via: CDex 1.51
#
DISCID=2d03e004
DTITLE=Ron Dunivan - Its Hard To Find The Old Road Signs Of U.S. 66
DYEAR=1998
DGENRE=Country
TTITLE0=Its Hard To Find The Old Road Signs Of U.S. 66
TTITLE1=Dust Bowl Refugees
TTITLE2=Mother Of The Mother Road
TTITLE3=Mother Of The Mother Road (Instrumental)
EXTD=YEAR: 1998
EXTT0=
EXTT1=
EXTT2=
EXTT3=
PLAYORDER=
